<?xml version="1.0" standalone="no"?><!DOCTYPE svg PUBLIC "-//W3C//DTD SVG 1.1//EN" "http://www.w3.org/Graphics/SVG/1.1/DTD/svg11.dtd"><svg width="100%" height="100%" viewBox="0 0 900 1200" version="1.1" xmlns="http://www.w3.org/2000/svg" xmlns:xlink="http://www.w3.org/1999/xlink" xml:space="preserve" style="fill-rule:evenodd;clip-rule:evenodd;stroke-linejoin:round;stroke-miterlimit:1.41421;"><g id="Logo"><g id="Símbolo"><path d="M691.81,752.079l-150.869,0l150.869,-250.536l0,250.536ZM646.704,512.27l-146.489,239.809l-154.303,0l0,-239.809l300.792,0ZM345.912,442.901l345.898,0l0,-36.704l-345.898,0l0,36.704Z" style="fill:#e32327;"/><path d="M691.857,752.079l0,36.748l-173.127,0l22.198,-36.748l150.929,0ZM296.134,114.272l0,3.244l73.962,-21.384l0,2.33c-21.743,6.65 -24.117,19.489 -24.194,27.181l0,663.184l131.864,0l22.469,-36.752l-154.323,0l0,-345.878l345.945,0l0,-406.197l-395.723,114.272ZM0,752.155l345.903,0l0,-345.895l-345.903,0l0,345.895Z" style="fill:#1a1619;"/></g><g id="17,"><path d="M152.892,913.445l-65.377,0l0,-8.143c1.943,-0.155 4.951,-0.47 9.04,-0.954c4.09,-0.495 6.914,-1.001 8.458,-1.532c2.003,-0.753 3.527,-1.967 4.592,-3.669c1.065,-1.693 1.596,-4.234 1.596,-7.608l0,-79.238l-24.173,0l0,-9.38l5.35,0c6.998,0 13.274,-1.503 18.819,-4.536c5.541,-3.028 9.511,-6.287 11.917,-9.769l8.071,0c-0.224,4.891 -0.44,10.612 -0.654,17.158c-0.224,6.54 -0.331,12.412 -0.331,17.595l0,66.924c0,2.634 0.498,4.987 1.504,7.054c1.005,2.063 2.449,3.59 4.336,4.572c1.692,0.821 4.449,1.579 8.282,2.259c3.83,0.677 6.683,1.048 8.57,1.124l0,8.143Z" style="fill:#e32327;"/><path d="M259.209,799.659l-69.046,154.982l-12.118,0l64.931,-143.325l-37.993,0c-5.617,0 -10.005,0.072 -13.165,0.227c-3.163,0.156 -6.068,0.862 -8.718,2.151c-1.998,0.988 -3.786,3.502 -5.365,7.548c-1.579,4.042 -2.793,9.204 -3.635,15.475l-5.92,0l0,-44.4l91.029,0l0,7.342Z" style="fill:#e32327;"/><path d="M300.772,909.387c0,5.422 -1.056,10.557 -3.158,15.385c-2.111,4.826 -4.526,8.976 -7.254,12.454c-2.793,3.615 -5.745,6.822 -8.861,9.612c-3.111,2.793 -5.964,4.982 -8.562,6.566l-4.479,-7.569c3.107,-2.254 5.896,-4.518 8.358,-6.769c2.458,-2.267 4.464,-4.524 6.02,-6.787c1.943,-2.632 3.595,-5.493 4.958,-8.581c1.353,-3.087 2.235,-6.583 2.618,-10.5l-4.947,0c-4.341,0 -7.728,-1.326 -10.154,-3.975c-2.429,-2.645 -3.646,-6.204 -3.646,-10.667c0,-3.172 1.101,-6.251 3.315,-9.244c2.202,-2.989 5.219,-4.485 9.049,-4.485c5.586,0 9.77,2.171 12.559,6.508c2.788,4.336 4.184,10.357 4.184,18.052" style="fill:#e32327;"/></g><g id="Texto"><path d="M369.825,910.085l-26.456,0l0,-2.999c0.738,-0.044 1.819,-0.141 3.216,-0.24c1.424,-0.112 2.409,-0.284 2.993,-0.499c0.912,-0.343 1.566,-0.83 1.993,-1.447c0.407,-0.62 0.615,-1.477 0.615,-2.57l0,-42.193c0,-0.966 -0.151,-1.768 -0.454,-2.407c-0.307,-0.638 -1.026,-1.185 -2.154,-1.628c-0.834,-0.315 -1.881,-0.629 -3.132,-0.913c-1.253,-0.286 -2.275,-0.458 -3.077,-0.518l0,-2.996l26.456,0l0,2.996c-0.854,0.036 -1.881,0.139 -3.069,0.318c-1.185,0.172 -2.218,0.404 -3.095,0.68c-1.053,0.318 -1.767,0.857 -2.124,1.607c-0.354,0.722 -0.537,1.551 -0.537,2.45l0,42.157c0,0.901 0.206,1.704 0.605,2.397c0.396,0.695 1.081,1.253 2.056,1.66c0.57,0.236 1.532,0.455 2.837,0.739c1.308,0.235 2.408,0.383 3.327,0.407l0,2.999Z" style="fill:#1a1619;fill-rule:nonzero;"/><path d="M437.133,854.671c-0.763,0.036 -1.952,0.251 -3.54,0.662c-1.588,0.414 -2.737,0.834 -3.422,1.269c-0.987,0.682 -1.66,2.006 -2.008,3.942c-0.339,1.941 -0.511,4.403 -0.511,7.384l0,42.66l-3.578,0l-35.523,-47.723l0,30.086c0,3.374 0.216,5.956 0.638,7.77c0.435,1.8 1.077,3.089 1.967,3.867c0.639,0.606 1.944,1.177 3.938,1.688c1.99,0.518 3.3,0.789 3.942,0.813l0,3.001l-23.969,0l0,-3.001c0.741,-0.047 1.975,-0.323 3.721,-0.801c1.736,-0.479 2.833,-0.89 3.26,-1.281c0.966,-0.771 1.623,-1.939 1.975,-3.515c0.347,-1.571 0.526,-4.268 0.526,-8.071l0,-28.69c0,-1.256 -0.214,-2.525 -0.657,-3.773c-0.432,-1.264 -1.01,-2.235 -1.756,-2.916c-0.99,-0.901 -2.322,-1.659 -3.986,-2.326c-1.688,-0.631 -3.044,-0.985 -4.085,-1.045l0,-2.993l16.636,0l32.959,44.285l0,-27.576c0,-3.356 -0.229,-5.969 -0.659,-7.78c-0.446,-1.807 -1.081,-3.012 -1.903,-3.607c-0.77,-0.523 -2.026,-1.013 -3.77,-1.503c-1.748,-0.492 -3.084,-0.766 -3.986,-0.826l0,-2.993l23.791,0l0,2.993Z" style="fill:#1a1619;fill-rule:nonzero;"/><path d="M478.125,883.36c1.225,1.392 2.126,2.88 2.705,4.52c0.581,1.635 0.873,3.542 0.873,5.72c0,5.164 -1.915,9.424 -5.756,12.783c-3.822,3.355 -8.59,5.036 -14.26,5.036c-2.629,0 -5.237,-0.432 -7.847,-1.293c-2.632,-0.883 -4.899,-1.891 -6.801,-3.04l-1.772,2.999l-3.176,0l-0.499,-19.971l3.332,0c0.69,2.493 1.508,4.716 2.43,6.727c0.913,1.986 2.126,3.849 3.646,5.592c1.435,1.625 3.111,2.925 5.026,3.89c1.912,0.966 4.126,1.425 6.664,1.425c1.902,0 3.546,-0.24 4.987,-0.727c1.403,-0.503 2.548,-1.212 3.437,-2.121c0.891,-0.907 1.545,-1.98 1.972,-3.205c0.423,-1.224 0.631,-2.637 0.631,-4.241c0,-2.353 -0.654,-4.536 -1.98,-6.574c-1.316,-2.027 -3.283,-3.58 -5.896,-4.617c-1.788,-0.701 -3.846,-1.499 -6.152,-2.358c-2.311,-0.865 -4.309,-1.691 -5.98,-2.457c-3.308,-1.472 -5.87,-3.411 -7.704,-5.813c-1.827,-2.397 -2.744,-5.534 -2.744,-9.387c0,-2.223 0.462,-4.276 1.368,-6.212c0.901,-1.902 2.202,-3.63 3.882,-5.125c1.579,-1.43 3.466,-2.554 5.644,-3.353c2.175,-0.809 4.437,-1.204 6.798,-1.204c2.694,0 5.104,0.403 7.238,1.229c2.131,0.834 4.08,1.799 5.836,2.9l1.683,-2.805l3.165,0l0.327,19.47l-3.328,0c-0.589,-2.235 -1.253,-4.356 -2.003,-6.376c-0.738,-2.039 -1.707,-3.894 -2.895,-5.538c-1.173,-1.572 -2.582,-2.856 -4.257,-3.794c-1.689,-0.957 -3.734,-1.431 -6.165,-1.431c-2.577,0 -4.766,0.845 -6.582,2.509c-1.816,1.668 -2.717,3.706 -2.717,6.124c0,2.525 0.578,4.603 1.751,6.271c1.165,1.66 2.861,3.025 5.088,4.082c1.986,0.973 3.932,1.803 5.844,2.494c1.918,0.717 3.77,1.459 5.558,2.265c1.636,0.71 3.191,1.524 4.703,2.433c1.511,0.91 2.813,1.964 3.926,3.173" style="fill:#1a1619;fill-rule:nonzero;"/><path d="M536.856,867.498l-2.838,0c-0.247,-0.99 -0.69,-2.147 -1.336,-3.484c-0.662,-1.341 -1.381,-2.605 -2.178,-3.814c-0.834,-1.229 -1.744,-2.322 -2.71,-3.264c-0.98,-0.925 -1.931,-1.468 -2.835,-1.603c-0.859,-0.107 -1.94,-0.192 -3.236,-0.24c-1.297,-0.055 -2.506,-0.088 -3.606,-0.088l-2.399,0l0,46.552c0,0.909 0.192,1.735 0.575,2.484c0.383,0.755 1.045,1.341 2.002,1.737c0.484,0.19 1.521,0.453 3.081,0.789c1.572,0.326 2.78,0.498 3.658,0.522l0,3.001l-27.628,0l0,-3.001c0.787,-0.047 1.955,-0.159 3.546,-0.323c1.581,-0.155 2.694,-0.371 3.288,-0.618c0.918,-0.352 1.587,-0.862 2.015,-1.54c0.431,-0.662 0.638,-1.556 0.638,-2.681l0,-46.922l-2.358,0c-0.834,0 -1.879,0.025 -3.116,0.068c-1.256,0.036 -2.452,0.12 -3.586,0.26c-0.893,0.107 -1.823,0.641 -2.78,1.603c-0.974,0.953 -1.855,2.052 -2.665,3.264c-0.826,1.237 -1.548,2.517 -2.16,3.89c-0.625,1.373 -1.053,2.501 -1.308,3.408l-3.163,0l0,-15.82l51.099,0l0,15.82Z" style="fill:#1a1619;fill-rule:nonzero;"/><path d="M566.916,910.085l-26.467,0l0,-2.999c0.73,-0.044 1.808,-0.141 3.22,-0.24c1.408,-0.112 2.398,-0.284 2.984,-0.499c0.917,-0.343 1.573,-0.83 1.987,-1.447c0.42,-0.62 0.618,-1.477 0.618,-2.57l0,-42.193c0,-0.966 -0.143,-1.768 -0.446,-2.407c-0.299,-0.638 -1.026,-1.185 -2.159,-1.628c-0.834,-0.315 -1.863,-0.629 -3.127,-0.913c-1.241,-0.286 -2.275,-0.458 -3.077,-0.518l0,-2.996l26.467,0l0,2.996c-0.873,0.036 -1.89,0.139 -3.075,0.318c-1.186,0.172 -2.219,0.404 -3.108,0.68c-1.045,0.318 -1.756,0.857 -2.111,1.607c-0.355,0.722 -0.534,1.551 -0.534,2.45l0,42.157c0,0.901 0.191,1.704 0.594,2.397c0.407,0.695 1.084,1.253 2.051,1.66c0.573,0.236 1.527,0.455 2.837,0.739c1.308,0.235 2.421,0.383 3.346,0.407l0,2.999Z" style="fill:#1a1619;fill-rule:nonzero;"/><path d="M621.9,867.498l-2.828,0c-0.252,-0.99 -0.695,-2.147 -1.349,-3.484c-0.646,-1.341 -1.371,-2.605 -2.174,-3.814c-0.818,-1.229 -1.732,-2.322 -2.712,-3.264c-0.982,-0.925 -1.92,-1.468 -2.829,-1.603c-0.862,-0.107 -1.939,-0.192 -3.239,-0.24c-1.294,-0.055 -2.491,-0.088 -3.603,-0.088l-2.398,0l0,46.552c0,0.909 0.188,1.735 0.574,2.484c0.375,0.755 1.045,1.341 1.995,1.737c0.491,0.19 1.52,0.453 3.091,0.789c1.576,0.326 2.793,0.498 3.663,0.522l0,3.001l-27.631,0l0,-3.001c0.774,-0.047 1.959,-0.159 3.543,-0.323c1.587,-0.155 2.684,-0.371 3.299,-0.618c0.906,-0.352 1.576,-0.862 2.003,-1.54c0.43,-0.662 0.646,-1.556 0.646,-2.681l0,-46.922l-2.358,0c-0.849,0 -1.888,0.025 -3.131,0.068c-1.25,0.036 -2.434,0.12 -3.583,0.26c-0.894,0.107 -1.82,0.641 -2.785,1.603c-0.958,0.953 -1.855,2.052 -2.665,3.264c-0.818,1.237 -1.528,2.517 -2.158,3.89c-0.619,1.373 -1.05,2.501 -1.289,3.408l-3.168,0l0,-15.82l51.086,0l0,15.82Z" style="fill:#1a1619;fill-rule:nonzero;"/><path d="M685.411,854.671c-0.779,0.036 -1.9,0.203 -3.388,0.49c-1.495,0.312 -2.696,0.758 -3.631,1.365c-0.933,0.623 -1.584,1.923 -1.934,3.898c-0.359,1.97 -0.539,4.375 -0.539,7.212l0,25.35c0,3.216 -0.675,6.036 -2.022,8.43c-1.341,2.366 -3.113,4.325 -5.302,5.853c-2.179,1.484 -4.458,2.534 -6.855,3.18c-2.402,0.654 -4.7,0.973 -6.889,0.973c-3.523,0 -6.644,-0.467 -9.396,-1.373c-2.738,-0.925 -5.043,-2.158 -6.91,-3.718c-1.836,-1.551 -3.228,-3.354 -4.153,-5.365c-0.945,-2.015 -1.412,-4.102 -1.412,-6.303l0,-34.45c0,-0.954 -0.156,-1.748 -0.484,-2.402c-0.31,-0.639 -0.964,-1.23 -1.946,-1.785c-0.71,-0.383 -1.6,-0.685 -2.689,-0.928c-1.102,-0.224 -1.991,-0.367 -2.705,-0.427l0,-2.993l24.46,0l0,2.993c-0.758,0.036 -1.732,0.154 -2.9,0.367c-1.166,0.227 -2.011,0.435 -2.558,0.631c-0.941,0.318 -1.556,0.865 -1.876,1.634c-0.334,0.763 -0.49,1.592 -0.49,2.501l0,32.152c0,1.553 0.188,3.184 0.527,4.908c0.351,1.699 1.037,3.284 2.047,4.768c1.074,1.507 2.538,2.736 4.376,3.698c1.839,0.958 4.389,1.436 7.612,1.436c3.025,0 5.566,-0.478 7.616,-1.436c2.056,-0.962 3.671,-2.215 4.855,-3.773c1.133,-1.482 1.935,-3.025 2.407,-4.625c0.458,-1.62 0.693,-3.256 0.693,-4.891l0,-23.881c0,-3.025 -0.219,-5.503 -0.654,-7.429c-0.438,-1.931 -1.092,-3.196 -1.936,-3.798c-0.964,-0.694 -2.264,-1.217 -3.924,-1.6c-1.668,-0.38 -2.929,-0.602 -3.799,-0.662l0,-2.993l23.799,0l0,2.993Z" style="fill:#1a1619;fill-rule:nonzero;"/><path d="M737.881,867.498l-2.828,0c-0.244,-0.99 -0.698,-2.147 -1.341,-3.484c-0.659,-1.341 -1.376,-2.605 -2.174,-3.814c-0.834,-1.229 -1.732,-2.322 -2.714,-3.264c-0.985,-0.925 -1.931,-1.468 -2.828,-1.603c-0.859,-0.107 -1.943,-0.192 -3.235,-0.24c-1.293,-0.055 -2.51,-0.088 -3.599,-0.088l-2.418,0l0,46.552c0,0.909 0.199,1.735 0.579,2.484c0.378,0.755 1.042,1.341 2.011,1.737c0.49,0.19 1.512,0.453 3.083,0.789c1.56,0.326 2.772,0.498 3.647,0.522l0,3.001l-27.623,0l0,-3.001c0.789,-0.047 1.957,-0.159 3.546,-0.323c1.579,-0.155 2.684,-0.371 3.288,-0.618c0.928,-0.352 1.584,-0.862 2.017,-1.54c0.432,-0.662 0.631,-1.556 0.631,-2.681l0,-46.922l-2.346,0c-0.846,0 -1.891,0.025 -3.123,0.068c-1.246,0.036 -2.455,0.12 -3.583,0.26c-0.897,0.107 -1.832,0.641 -2.788,1.603c-0.97,0.953 -1.855,2.052 -2.658,3.264c-0.833,1.237 -1.544,2.517 -2.167,3.89c-0.633,1.373 -1.056,2.501 -1.311,3.408l-3.156,0l0,-15.82l51.09,0l0,15.82Z" style="fill:#1a1619;fill-rule:nonzero;"/><path d="M789.506,858.644c2.574,2.697 4.583,5.92 6.04,9.719c1.448,3.778 2.182,7.986 2.182,12.574c0,4.628 -0.747,8.841 -2.222,12.624c-1.48,3.778 -3.535,6.99 -6.172,9.646c-2.546,2.634 -5.498,4.653 -8.88,6.088c-3.376,1.41 -6.959,2.127 -10.765,2.127c-4.065,0 -7.815,-0.751 -11.254,-2.286c-3.431,-1.516 -6.383,-3.639 -8.848,-6.344c-2.467,-2.657 -4.421,-5.88 -5.829,-9.661c-1.393,-3.807 -2.115,-7.861 -2.115,-12.194c0,-4.734 0.737,-8.939 2.227,-12.654c1.488,-3.719 3.515,-6.934 6.123,-9.639c2.574,-2.681 5.569,-4.736 8.984,-6.164c3.411,-1.42 6.975,-2.126 10.712,-2.126c3.858,0 7.505,0.726 10.927,2.173c3.436,1.449 6.392,3.484 8.89,6.117M783.354,899.952c1.519,-2.486 2.642,-5.307 3.34,-8.454c0.701,-3.143 1.053,-6.658 1.053,-10.561c0,-3.989 -0.399,-7.66 -1.186,-10.987c-0.778,-3.351 -1.915,-6.204 -3.418,-8.546c-1.505,-2.337 -3.384,-4.132 -5.666,-5.456c-2.265,-1.277 -4.863,-1.939 -7.788,-1.939c-3.286,0 -6.076,0.757 -8.374,2.262c-2.306,1.503 -4.177,3.518 -5.626,6.019c-1.371,2.415 -2.384,5.25 -3.059,8.47c-0.674,3.231 -1.005,6.626 -1.005,10.177c0,3.95 0.354,7.512 1.073,10.688c0.711,3.176 1.824,6.001 3.367,8.458c1.472,2.415 3.336,4.293 5.57,5.654c2.25,1.349 4.935,2.014 8.054,2.014c2.925,0 5.567,-0.678 7.912,-2.043c2.345,-1.371 4.281,-3.283 5.753,-5.756" style="fill:#1a1619;fill-rule:nonzero;"/><path d="M400.114,985.715c0,4.971 -0.943,9.276 -2.801,12.939c-1.863,3.639 -4.294,6.63 -7.282,8.96c-3.015,2.33 -6.407,4.082 -10.161,5.247c-3.766,1.133 -7.64,1.707 -11.65,1.707l-24.192,0l0,-2.992c0.793,0 1.835,-0.075 3.108,-0.231c1.28,-0.136 2.122,-0.323 2.533,-0.508c0.821,-0.358 1.42,-0.878 1.787,-1.574c0.376,-0.703 0.558,-1.537 0.558,-2.527l0,-42.034c0,-0.936 -0.167,-1.77 -0.474,-2.509c-0.323,-0.741 -0.974,-1.316 -1.915,-1.763c-0.878,-0.408 -1.808,-0.703 -2.829,-0.89c-1.001,-0.199 -1.871,-0.326 -2.596,-0.37l0,-3.001l25.584,0c3.507,0 6.993,0.539 10.393,1.628c3.415,1.081 6.383,2.537 8.921,4.385c3.431,2.433 6.128,5.633 8.079,9.586c1.955,3.954 2.937,8.585 2.937,13.947M390.13,985.707c0,-3.929 -0.526,-7.48 -1.566,-10.656c-1.058,-3.175 -2.582,-5.949 -4.577,-8.306c-1.898,-2.247 -4.221,-4.029 -6.986,-5.311c-2.76,-1.292 -5.824,-1.933 -9.203,-1.933c-1.118,0 -2.399,0.011 -3.811,0.047c-1.408,0.057 -2.465,0.088 -3.151,0.112l0,44.947c0,2.517 0.733,4.221 2.189,5.193c1.449,0.977 3.692,1.445 6.715,1.445c3.483,0 6.536,-0.611 9.14,-1.839c2.613,-1.25 4.728,-2.961 6.349,-5.159c1.691,-2.318 2.944,-4.979 3.721,-8.027c0.778,-3.032 1.18,-6.535 1.18,-10.513" style="fill:#1a1619;fill-rule:nonzero;"/><path d="M456.474,997.429l-1.105,17.144l-48.491,0l0,-2.993c0.826,-0.048 1.912,-0.18 3.296,-0.344c1.373,-0.178 2.267,-0.366 2.673,-0.558c0.874,-0.407 1.488,-0.938 1.835,-1.608c0.34,-0.654 0.528,-1.488 0.528,-2.493l0,-41.875c0,-0.905 -0.164,-1.707 -0.463,-2.401c-0.303,-0.695 -0.933,-1.268 -1.9,-1.703c-0.75,-0.352 -1.735,-0.667 -2.983,-0.959c-1.249,-0.258 -2.251,-0.422 -2.986,-0.469l0,-3.005l45.263,0l0,14.146l-3.16,0c-0.551,-2.069 -1.736,-4.292 -3.555,-6.646c-1.819,-2.346 -3.546,-3.622 -5.187,-3.849c-0.857,-0.101 -1.866,-0.185 -3.039,-0.248c-1.185,-0.041 -2.526,-0.072 -4.022,-0.072l-9.159,0l0,23.128l6.506,0c2.075,0 3.599,-0.208 4.581,-0.591c0.945,-0.399 1.787,-1.061 2.525,-1.991c0.594,-0.789 1.112,-1.842 1.527,-3.155c0.427,-1.326 0.703,-2.577 0.834,-3.746l3.168,0l0,22.784l-3.168,0c-0.115,-1.309 -0.402,-2.704 -0.877,-4.176c-0.468,-1.465 -0.966,-2.546 -1.484,-3.21c-0.839,-1.06 -1.796,-1.77 -2.856,-2.082c-1.078,-0.334 -2.491,-0.506 -4.25,-0.506l-6.506,0l0,17.574c0,1.759 0.115,3.148 0.363,4.165c0.239,1.037 0.717,1.8 1.423,2.321c0.711,0.516 1.672,0.859 2.909,1.006c1.209,0.161 2.96,0.228 5.219,0.228l3.546,0c1.473,0 2.705,-0.041 3.714,-0.156c1.026,-0.111 2.099,-0.307 3.199,-0.61c1.102,-0.28 1.889,-0.666 2.339,-1.169c1.257,-1.313 2.573,-3.312 3.945,-5.98c1.373,-2.67 2.251,-4.645 2.637,-5.901l3.161,0Z" style="fill:#1a1619;fill-rule:nonzero;"/><path d="M531.921,997.429l-1.094,17.144l-48.501,0l0,-2.993c0.818,-0.048 1.922,-0.18 3.298,-0.344c1.37,-0.178 2.264,-0.366 2.678,-0.558c0.881,-0.407 1.493,-0.938 1.832,-1.608c0.35,-0.654 0.514,-1.488 0.514,-2.493l0,-41.875c0,-0.905 -0.147,-1.707 -0.446,-2.401c-0.292,-0.695 -0.938,-1.268 -1.9,-1.703c-0.745,-0.352 -1.74,-0.667 -2.993,-0.959c-1.243,-0.258 -2.233,-0.422 -2.983,-0.469l0,-3.005l45.273,0l0,14.146l-3.168,0c-0.542,-2.069 -1.723,-4.292 -3.542,-6.646c-1.831,-2.346 -3.559,-3.622 -5.195,-3.849c-0.849,-0.101 -1.871,-0.185 -3.048,-0.248c-1.176,-0.041 -2.517,-0.072 -4.013,-0.072l-9.164,0l0,23.128l6.515,0c2.082,0 3.598,-0.208 4.567,-0.591c0.966,-0.399 1.808,-1.061 2.546,-1.991c0.594,-0.789 1.101,-1.842 1.516,-3.155c0.435,-1.326 0.698,-2.577 0.826,-3.746l3.168,0l0,22.784l-3.168,0c-0.096,-1.309 -0.391,-2.704 -0.878,-4.176c-0.462,-1.465 -0.965,-2.546 -1.464,-3.21c-0.842,-1.06 -1.803,-1.77 -2.872,-2.082c-1.078,-0.334 -2.486,-0.506 -4.241,-0.506l-6.515,0l0,17.574c0,1.759 0.128,3.148 0.375,4.165c0.243,1.037 0.725,1.8 1.424,2.321c0.703,0.516 1.675,0.859 2.897,1.006c1.229,0.161 2.956,0.228 5.218,0.228l3.551,0c1.463,0 2.708,-0.041 3.718,-0.156c1.038,-0.111 2.086,-0.307 3.195,-0.61c1.105,-0.28 1.876,-0.666 2.346,-1.169c1.25,-1.313 2.558,-3.312 3.934,-5.98c1.373,-2.67 2.243,-4.645 2.633,-5.901l3.161,0Z" style="fill:#1a1619;fill-rule:nonzero;"/><path d="M574.297,987.838c1.232,1.384 2.118,2.889 2.72,4.528c0.571,1.636 0.867,3.536 0.867,5.717c0,5.167 -1.915,9.435 -5.761,12.787c-3.822,3.359 -8.586,5.042 -14.267,5.042c-2.608,0 -5.242,-0.45 -7.86,-1.308c-2.624,-0.865 -4.87,-1.886 -6.785,-3.032l-1.772,3.001l-3.163,0l-0.503,-19.973l3.33,0c0.687,2.501 1.498,4.723 2.415,6.719c0.93,1.986 2.134,3.861 3.661,5.602c1.43,1.618 3.097,2.915 5.008,3.877c1.915,0.969 4.14,1.451 6.686,1.451c1.891,0 3.551,-0.247 4.963,-0.748c1.425,-0.492 2.577,-1.201 3.452,-2.115c0.889,-0.907 1.535,-1.967 1.967,-3.205c0.425,-1.232 0.633,-2.637 0.633,-4.247c0,-2.355 -0.654,-4.537 -1.97,-6.576c-1.321,-2.019 -3.288,-3.562 -5.909,-4.612c-1.795,-0.706 -3.838,-1.496 -6.144,-2.358c-2.318,-0.87 -4.309,-1.678 -5.979,-2.452c-3.317,-1.472 -5.87,-3.413 -7.705,-5.813c-1.836,-2.402 -2.737,-5.526 -2.737,-9.388c0,-2.222 0.46,-4.285 1.357,-6.211c0.901,-1.907 2.194,-3.624 3.877,-5.12c1.592,-1.443 3.475,-2.553 5.65,-3.351c2.161,-0.81 4.428,-1.221 6.802,-1.221c2.688,0 5.106,0.411 7.24,1.245c2.119,0.834 4.067,1.792 5.829,2.889l1.693,-2.801l3.155,0l0.336,19.474l-3.327,0c-0.596,-2.235 -1.266,-4.366 -2.012,-6.384c-0.742,-2.034 -1.719,-3.882 -2.9,-5.534c-1.161,-1.584 -2.57,-2.852 -4.262,-3.801c-1.675,-0.946 -3.733,-1.425 -6.167,-1.425c-2.577,0 -4.752,0.842 -6.574,2.509c-1.816,1.665 -2.71,3.698 -2.71,6.124c0,2.526 0.579,4.613 1.744,6.276c1.177,1.655 2.868,3.012 5.099,4.085c1.97,0.969 3.929,1.787 5.836,2.501c1.915,0.711 3.778,1.449 5.562,2.246c1.616,0.707 3.195,1.525 4.699,2.439c1.505,0.901 2.821,1.978 3.926,3.163" style="fill:#1a1619;fill-rule:nonzero;"/><path d="M633.015,971.979l-2.82,0c-0.255,-0.98 -0.703,-2.134 -1.341,-3.482c-0.662,-1.341 -1.376,-2.597 -2.174,-3.803c-0.83,-1.24 -1.735,-2.33 -2.725,-3.26c-0.99,-0.94 -1.907,-1.487 -2.837,-1.618c-0.845,-0.101 -1.931,-0.185 -3.226,-0.245c-1.282,-0.044 -2.499,-0.075 -3.596,-0.075l-2.41,0l0,46.55c0,0.906 0.193,1.727 0.579,2.47c0.372,0.766 1.042,1.349 2.006,1.755c0.487,0.183 1.513,0.443 3.072,0.787c1.576,0.318 2.79,0.49 3.671,0.522l0,2.993l-27.628,0l0,-2.993c0.766,-0.048 1.943,-0.172 3.548,-0.327c1.576,-0.164 2.681,-0.367 3.283,-0.619c0.917,-0.35 1.584,-0.858 2.003,-1.54c0.426,-0.67 0.654,-1.568 0.654,-2.681l0,-46.917l-2.378,0c-0.834,0 -1.868,0.016 -3.116,0.057c-1.245,0.047 -2.437,0.13 -3.583,0.263c-0.889,0.115 -1.806,0.638 -2.793,1.618c-0.956,0.946 -1.842,2.035 -2.656,3.26c-0.81,1.225 -1.524,2.511 -2.151,3.887c-0.63,1.363 -1.053,2.496 -1.3,3.398l-3.164,0l0,-15.81l51.082,0l0,15.81Z" style="fill:#1a1619;fill-rule:nonzero;"/><path d="M696.526,959.17c-0.779,0.015 -1.904,0.187 -3.392,0.474c-1.488,0.31 -2.689,0.761 -3.627,1.365c-0.933,0.621 -1.576,1.923 -1.931,3.898c-0.362,1.978 -0.542,4.375 -0.542,7.22l0,25.346c0,3.228 -0.662,6.037 -2.022,8.426c-1.337,2.385 -3.113,4.325 -5.302,5.868c-2.175,1.469 -4.453,2.522 -6.85,3.171c-2.399,0.651 -4.705,0.979 -6.894,0.979c-3.523,0 -6.644,-0.471 -9.38,-1.377c-2.754,-0.918 -5.059,-2.158 -6.918,-3.719c-1.847,-1.555 -3.232,-3.346 -4.161,-5.362c-0.942,-2.001 -1.409,-4.124 -1.409,-6.307l0,-34.445c0,-0.954 -0.164,-1.764 -0.474,-2.406c-0.323,-0.646 -0.985,-1.229 -1.955,-1.792c-0.715,-0.386 -1.599,-0.693 -2.693,-0.922c-1.094,-0.23 -1.991,-0.37 -2.694,-0.417l0,-3.001l24.457,0l0,3.001c-0.771,0.015 -1.732,0.146 -2.892,0.357c-1.17,0.232 -2.024,0.42 -2.574,0.623c-0.938,0.32 -1.56,0.867 -1.879,1.644c-0.32,0.755 -0.471,1.589 -0.471,2.485l0,32.168c0,1.56 0.167,3.184 0.515,4.888c0.339,1.711 1.025,3.306 2.051,4.786c1.069,1.509 2.528,2.73 4.38,3.687c1.832,0.974 4.377,1.441 7.6,1.441c3.028,0 5.561,-0.467 7.624,-1.441c2.051,-0.957 3.663,-2.205 4.852,-3.762c1.141,-1.48 1.93,-3.023 2.389,-4.644c0.474,-1.603 0.703,-3.239 0.703,-4.882l0,-23.878c0,-3.016 -0.221,-5.51 -0.659,-7.425c-0.422,-1.935 -1.073,-3.196 -1.928,-3.794c-0.961,-0.69 -2.269,-1.216 -3.929,-1.607c-1.667,-0.367 -2.916,-0.599 -3.798,-0.646l0,-3.001l23.803,0l0,3.001Z" style="fill:#1a1619;fill-rule:nonzero;"/><path d="M757.163,985.715c0,4.971 -0.934,9.276 -2.79,12.939c-1.878,3.639 -4.299,6.63 -7.292,8.96c-3.02,2.33 -6.4,4.082 -10.162,5.247c-3.762,1.133 -7.636,1.707 -11.641,1.707l-24.197,0l0,-2.992c0.799,0 1.831,-0.075 3.113,-0.231c1.264,-0.136 2.113,-0.323 2.525,-0.508c0.825,-0.358 1.415,-0.878 1.798,-1.574c0.359,-0.703 0.552,-1.537 0.552,-2.527l0,-42.034c0,-0.936 -0.172,-1.77 -0.487,-2.509c-0.32,-0.741 -0.959,-1.316 -1.915,-1.763c-0.863,-0.408 -1.804,-0.703 -2.809,-0.89c-1.017,-0.199 -1.876,-0.326 -2.613,-0.37l0,-3.001l25.585,0c3.518,0 6.989,0.539 10.396,1.628c3.416,1.081 6.389,2.537 8.921,4.385c3.443,2.433 6.129,5.633 8.08,9.586c1.965,3.954 2.936,8.585 2.936,13.947M747.188,985.707c0,-3.929 -0.538,-7.48 -1.58,-10.656c-1.041,-3.175 -2.569,-5.949 -4.58,-8.306c-1.894,-2.247 -4.216,-4.029 -6.97,-5.311c-2.756,-1.292 -5.828,-1.933 -9.211,-1.933c-1.117,0 -2.389,0.011 -3.803,0.047c-1.415,0.057 -2.468,0.088 -3.155,0.112l0,44.947c0,2.517 0.731,4.221 2.178,5.193c1.448,0.977 3.699,1.445 6.722,1.445c3.48,0 6.532,-0.611 9.14,-1.839c2.61,-1.25 4.721,-2.961 6.344,-5.159c1.704,-2.318 2.952,-4.979 3.731,-8.027c0.782,-3.032 1.184,-6.535 1.184,-10.513" style="fill:#1a1619;fill-rule:nonzero;"/><path d="M790.053,1014.57l-26.464,0l0,-2.993c0.75,-0.048 1.816,-0.139 3.244,-0.251c1.396,-0.109 2.394,-0.271 2.98,-0.495c0.902,-0.351 1.564,-0.831 1.988,-1.444c0.41,-0.614 0.613,-1.481 0.613,-2.578l0,-42.197c0,-0.953 -0.151,-1.751 -0.443,-2.397c-0.315,-0.639 -1.04,-1.185 -2.158,-1.62c-0.833,-0.331 -1.875,-0.639 -3.128,-0.934c-1.257,-0.275 -2.289,-0.447 -3.096,-0.499l0,-3l26.464,0l0,3c-0.855,0.02 -1.871,0.132 -3.069,0.307c-1.168,0.167 -2.215,0.407 -3.096,0.675c-1.057,0.318 -1.751,0.857 -2.118,1.603c-0.347,0.734 -0.539,1.557 -0.539,2.462l0,42.162c0,0.906 0.208,1.691 0.602,2.402c0.404,0.693 1.086,1.24 2.055,1.644c0.587,0.234 1.529,0.466 2.841,0.737c1.3,0.243 2.422,0.391 3.324,0.423l0,2.993Z" style="fill:#1a1619;fill-rule:nonzero;"/><path d="M844.494,963.135c2.573,2.681 4.584,5.92 6.04,9.714c1.444,3.775 2.174,7.988 2.174,12.579c0,4.62 -0.738,8.838 -2.21,12.608c-1.496,3.794 -3.554,7.006 -6.175,9.654c-2.546,2.633 -5.511,4.66 -8.89,6.084c-3.363,1.412 -6.957,2.143 -10.767,2.143c-4.061,0 -7.803,-0.771 -11.242,-2.29c-3.447,-1.524 -6.399,-3.639 -8.869,-6.352c-2.454,-2.653 -4.398,-5.873 -5.81,-9.666c-1.415,-3.794 -2.118,-7.848 -2.118,-12.181c0,-4.731 0.734,-8.952 2.222,-12.663c1.48,-3.71 3.507,-6.933 6.125,-9.63c2.564,-2.689 5.576,-4.736 8.992,-6.172c3.411,-1.412 6.981,-2.134 10.7,-2.134c3.878,0 7.508,0.737 10.939,2.173c3.423,1.457 6.391,3.499 8.889,6.133M838.333,1004.44c1.524,-2.498 2.65,-5.31 3.345,-8.45c0.698,-3.147 1.04,-6.67 1.04,-10.565c0,-3.989 -0.386,-7.668 -1.168,-10.995c-0.778,-3.343 -1.915,-6.188 -3.428,-8.538c-1.496,-2.333 -3.382,-4.148 -5.657,-5.449c-2.266,-1.292 -4.872,-1.956 -7.799,-1.956c-3.276,0 -6.076,0.766 -8.37,2.264c-2.306,1.503 -4.177,3.518 -5.618,6.035c-1.381,2.41 -2.394,5.242 -3.056,8.462c-0.683,3.223 -1.013,6.623 -1.013,10.177c0,3.95 0.356,7.512 1.078,10.688c0.701,3.176 1.814,5.989 3.35,8.462c1.48,2.395 3.34,4.289 5.586,5.621c2.25,1.373 4.92,2.055 8.043,2.055c2.927,0 5.577,-0.69 7.924,-2.055c2.345,-1.371 4.263,-3.291 5.743,-5.756" style="fill:#1a1619;fill-rule:nonzero;"/><path d="M896.425,987.838c1.214,1.384 2.123,2.889 2.697,4.528c0.591,1.636 0.878,3.536 0.878,5.717c0,5.167 -1.918,9.435 -5.753,12.787c-3.833,3.359 -8.588,5.042 -14.274,5.042c-2.621,0 -5.226,-0.45 -7.852,-1.308c-2.616,-0.865 -4.878,-1.886 -6.785,-3.032l-1.78,3.001l-3.16,0l-0.503,-19.973l3.324,0c0.699,2.501 1.507,4.723 2.426,6.719c0.921,1.986 2.137,3.861 3.658,5.602c1.432,1.618 3.109,2.915 5.014,3.877c1.92,0.969 4.13,1.451 6.667,1.451c1.907,0 3.567,-0.247 4.992,-0.748c1.412,-0.492 2.548,-1.201 3.439,-2.115c0.884,-0.907 1.54,-1.967 1.962,-3.205c0.423,-1.232 0.639,-2.637 0.639,-4.247c0,-2.355 -0.654,-4.537 -1.98,-6.576c-1.324,-2.019 -3.278,-3.562 -5.896,-4.612c-1.788,-0.706 -3.846,-1.496 -6.16,-2.358c-2.306,-0.87 -4.309,-1.678 -5.985,-2.452c-3.291,-1.472 -5.864,-3.413 -7.694,-5.813c-1.821,-2.402 -2.738,-5.526 -2.738,-9.388c0,-2.222 0.448,-4.285 1.365,-6.211c0.897,-1.907 2.199,-3.624 3.877,-5.12c1.592,-1.443 3.463,-2.553 5.638,-3.351c2.178,-0.81 4.448,-1.221 6.811,-1.221c2.688,0 5.102,0.411 7.236,1.245c2.126,0.834 4.082,1.792 5.836,2.889l1.693,-2.801l3.155,0l0.335,19.474l-3.328,0c-0.602,-2.235 -1.264,-4.366 -2.017,-6.384c-0.732,-2.034 -1.704,-3.882 -2.902,-5.534c-1.16,-1.584 -2.577,-2.852 -4.252,-3.801c-1.68,-0.946 -3.734,-1.425 -6.168,-1.425c-2.566,0 -4.763,0.842 -6.563,2.509c-1.823,1.665 -2.728,3.698 -2.728,6.124c0,2.526 0.574,4.613 1.759,6.276c1.157,1.655 2.861,3.012 5.083,4.085c1.994,0.969 3.924,1.787 5.836,2.501c1.923,0.711 3.771,1.449 5.566,2.246c1.631,0.707 3.191,1.525 4.695,2.439c1.512,0.901 2.821,1.978 3.937,3.163" style="fill:#1a1619;fill-rule:nonzero;"/><path d="M370.031,1120.39c-3.478,0 -6.813,-0.686 -10.01,-2.055c-3.184,-1.372 -6.019,-3.351 -8.484,-5.932c-2.439,-2.569 -4.374,-5.725 -5.838,-9.443c-1.439,-3.723 -2.174,-7.916 -2.174,-12.583c0,-4.672 0.73,-8.901 2.142,-12.711c1.444,-3.794 3.419,-7.062 5.953,-9.81c2.494,-2.721 5.449,-4.824 8.857,-6.312c3.415,-1.472 7.058,-2.222 10.935,-2.222c2.897,0 5.505,0.375 7.848,1.109c2.334,0.726 4.567,1.728 6.683,3.024l1.691,-2.801l3.163,0l0.331,20.79l-3.327,0c-0.438,-2.031 -1.092,-4.269 -1.967,-6.675c-0.878,-2.385 -1.911,-4.428 -3.075,-6.088c-1.305,-1.883 -2.866,-3.363 -4.677,-4.42c-1.806,-1.073 -3.866,-1.608 -6.188,-1.608c-2.632,0 -5.106,0.583 -7.384,1.772c-2.282,1.188 -4.257,2.94 -5.928,5.238c-1.573,2.242 -2.821,5.075 -3.715,8.533c-0.906,3.436 -1.357,7.277 -1.357,11.518c0,3.738 0.471,7.178 1.401,10.317c0.962,3.108 2.29,5.865 4.026,8.227c1.743,2.346 3.801,4.169 6.183,5.493c2.382,1.325 5.055,1.987 7.988,1.987c2.202,0 4.229,-0.359 6.071,-1.049c1.852,-0.694 3.46,-1.632 4.82,-2.777c1.357,-1.213 2.566,-2.581 3.587,-4.121c1.041,-1.536 1.887,-3.22 2.549,-5.035l3.148,1.496c-2.346,5.781 -5.474,9.926 -9.372,12.424c-3.89,2.473 -8.518,3.714 -13.88,3.714" style="fill:#1a1619;fill-rule:nonzero;"/><path d="M455.432,1119.07l-15.866,0c-3.475,-5.422 -6.623,-10.114 -9.428,-14.06c-2.804,-3.953 -5.86,-8.031 -9.14,-12.224l-6.009,0l0,18.312c0,0.958 0.156,1.8 0.468,2.51c0.319,0.726 0.978,1.269 1.991,1.652c0.511,0.187 1.387,0.374 2.661,0.53c1.256,0.16 2.337,0.256 3.207,0.287l0,2.993l-24.963,0l0,-2.993c0.662,-0.06 1.612,-0.155 2.861,-0.287c1.24,-0.132 2.126,-0.323 2.613,-0.539c0.826,-0.359 1.425,-0.885 1.795,-1.563c0.363,-0.675 0.547,-1.552 0.547,-2.63l0,-42.109c0,-0.958 -0.127,-1.8 -0.399,-2.546c-0.283,-0.726 -0.925,-1.292 -1.943,-1.691c-0.686,-0.24 -1.579,-0.467 -2.673,-0.67c-1.097,-0.204 -2.027,-0.328 -2.801,-0.391l0,-2.993l27.081,0c2.478,0 4.805,0.252 6.978,0.778c2.191,0.495 4.158,1.313 5.92,2.45c1.704,1.097 3.069,2.537 4.085,4.317c1.027,1.775 1.529,3.906 1.529,6.419c0,2.246 -0.339,4.257 -1.026,5.98c-0.701,1.744 -1.719,3.24 -3.067,4.497c-1.248,1.172 -2.738,2.218 -4.489,3.075c-1.73,0.886 -3.661,1.612 -5.761,2.223c2.893,3.81 5.299,7.001 7.21,9.602c1.912,2.606 4.265,5.769 7.053,9.504c1.206,1.631 2.306,2.836 3.288,3.582c0.977,0.774 1.951,1.385 2.913,1.863c0.709,0.363 1.61,0.615 2.676,0.802c1.081,0.188 1.972,0.296 2.689,0.327l0,2.993ZM433.965,1075.54c0,-3.547 -1.03,-6.36 -3.093,-8.426c-2.066,-2.087 -4.99,-3.128 -8.757,-3.128l-7.126,0l0,25.134l5.49,0c3.854,0 7.071,-1.217 9.635,-3.655c2.577,-2.425 3.851,-5.732 3.851,-9.925" style="fill:#1a1619;fill-rule:nonzero;"/><path d="M483.172,1119.07l-26.459,0l0,-2.993c0.75,-0.06 1.824,-0.139 3.231,-0.243c1.409,-0.108 2.398,-0.279 2.976,-0.495c0.917,-0.351 1.573,-0.845 1.988,-1.46c0.419,-0.606 0.622,-1.472 0.622,-2.569l0,-42.19c0,-0.965 -0.164,-1.759 -0.459,-2.413c-0.291,-0.639 -1.021,-1.185 -2.151,-1.62c-0.821,-0.315 -1.879,-0.622 -3.119,-0.914c-1.261,-0.287 -2.29,-0.459 -3.088,-0.522l0,-2.993l26.459,0l0,2.993c-0.858,0.039 -1.879,0.151 -3.072,0.315c-1.185,0.171 -2.219,0.403 -3.097,0.678c-1.056,0.327 -1.751,0.862 -2.114,1.608c-0.362,0.73 -0.539,1.552 -0.539,2.465l0,42.142c0,0.902 0.2,1.704 0.599,2.414c0.404,0.69 1.089,1.241 2.054,1.667c0.58,0.192 1.524,0.443 2.842,0.703c1.303,0.271 2.413,0.403 3.327,0.434l0,2.993ZM475.89,1050.11c-1.209,0.599 -3.083,1.508 -5.617,2.725c-2.538,1.217 -5.417,2.609 -8.617,4.161l-1.281,-1.604c2.49,-2.374 4.533,-4.332 6.112,-5.88c1.573,-1.536 3.132,-3.128 4.668,-4.74c0.874,-0.926 1.679,-1.588 2.402,-1.987c0.73,-0.403 1.512,-0.594 2.333,-0.594c1.037,0 1.931,0.319 2.681,0.949c0.727,0.611 1.105,1.401 1.105,2.334c0,1.181 -0.355,2.103 -1.073,2.781c-0.706,0.694 -1.611,1.308 -2.713,1.855" style="fill:#1a1619;fill-rule:nonzero;"/><path d="M538.167,1076.47l-2.828,0c-0.252,-0.981 -0.687,-2.134 -1.341,-3.483c-0.649,-1.332 -1.371,-2.605 -2.166,-3.794c-0.833,-1.257 -1.748,-2.338 -2.728,-3.271c-0.982,-0.934 -1.915,-1.476 -2.829,-1.604c-0.858,-0.112 -1.939,-0.2 -3.236,-0.244c-1.292,-0.055 -2.493,-0.091 -3.598,-0.091l-2.402,0l0,46.562c0,0.897 0.184,1.731 0.57,2.473c0.383,0.75 1.045,1.333 2.003,1.736c0.491,0.195 1.512,0.459 3.083,0.794c1.577,0.319 2.778,0.499 3.655,0.534l0,2.992l-27.628,0l0,-2.992c0.787,-0.064 1.964,-0.167 3.551,-0.339c1.576,-0.155 2.689,-0.375 3.283,-0.618c0.927,-0.351 1.589,-0.854 2.016,-1.524c0.423,-0.678 0.646,-1.572 0.646,-2.697l0,-46.921l-2.357,0c-0.842,0 -1.879,0.02 -3.14,0.06c-1.242,0.047 -2.438,0.131 -3.58,0.275c-0.888,0.1 -1.806,0.634 -2.78,1.604c-0.953,0.961 -1.847,2.058 -2.665,3.271c-0.81,1.225 -1.527,2.513 -2.158,3.886c-0.619,1.356 -1.054,2.493 -1.302,3.391l-3.155,0l0,-15.807l51.086,0l0,15.807Z" style="fill:#1a1619;fill-rule:nonzero;"/><path d="M568.233,1119.07l-26.458,0l0,-2.993c0.729,-0.06 1.819,-0.139 3.215,-0.243c1.404,-0.108 2.41,-0.279 2.988,-0.495c0.91,-0.351 1.572,-0.845 1.991,-1.46c0.407,-0.606 0.626,-1.472 0.626,-2.569l0,-42.19c0,-0.965 -0.164,-1.759 -0.462,-2.413c-0.304,-0.639 -1.018,-1.185 -2.155,-1.62c-0.833,-0.315 -1.87,-0.622 -3.128,-0.914c-1.256,-0.287 -2.283,-0.459 -3.075,-0.522l0,-2.993l26.458,0l0,2.993c-0.87,0.039 -1.891,0.151 -3.076,0.315c-1.178,0.171 -2.223,0.403 -3.108,0.678c-1.053,0.327 -1.739,0.862 -2.111,1.608c-0.354,0.73 -0.526,1.552 -0.526,2.465l0,42.142c0,0.902 0.195,1.704 0.586,2.414c0.407,0.69 1.081,1.241 2.051,1.667c0.583,0.192 1.529,0.443 2.837,0.703c1.321,0.271 2.429,0.403 3.347,0.434l0,2.993Z" style="fill:#1a1619;fill-rule:nonzero;"/><path d="M601.295,1120.39c-3.476,0 -6.816,-0.686 -10.007,-2.055c-3.182,-1.372 -6.012,-3.351 -8.477,-5.932c-2.446,-2.569 -4.385,-5.725 -5.841,-9.443c-1.444,-3.723 -2.175,-7.916 -2.175,-12.583c0,-4.672 0.716,-8.901 2.144,-12.711c1.431,-3.794 3.418,-7.062 5.94,-9.81c2.501,-2.721 5.457,-4.824 8.872,-6.312c3.416,-1.472 7.053,-2.222 10.94,-2.222c2.869,0 5.493,0.375 7.823,1.109c2.347,0.726 4.572,1.728 6.679,3.024l1.703,-2.801l3.168,0l0.331,20.79l-3.331,0c-0.432,-2.031 -1.086,-4.269 -1.964,-6.675c-0.873,-2.385 -1.91,-4.428 -3.079,-6.088c-1.309,-1.883 -2.877,-3.363 -4.667,-4.42c-1.8,-1.073 -3.862,-1.608 -6.188,-1.608c-2.642,0 -5.112,0.583 -7.389,1.772c-2.283,1.188 -4.25,2.94 -5.912,5.238c-1.589,2.242 -2.83,5.075 -3.723,8.533c-0.913,3.436 -1.364,7.277 -1.364,11.518c0,3.738 0.475,7.178 1.408,10.317c0.938,3.108 2.282,5.865 4.022,8.227c1.743,2.346 3.802,4.169 6.179,5.493c2.378,1.325 5.046,1.987 7.98,1.987c2.197,0 4.236,-0.359 6.087,-1.049c1.852,-0.694 3.452,-1.632 4.816,-2.777c1.364,-1.213 2.562,-2.581 3.583,-4.121c1.045,-1.536 1.89,-3.22 2.541,-5.035l3.16,1.496c-2.358,5.781 -5.482,9.926 -9.372,12.424c-3.882,2.473 -8.517,3.714 -13.887,3.714" style="fill:#1a1619;fill-rule:nonzero;"/><path d="M676.808,1067.62c2.582,2.693 4.609,5.921 6.057,9.719c1.449,3.79 2.174,7.987 2.174,12.583c0,4.636 -0.746,8.837 -2.218,12.615c-1.485,3.786 -3.535,6.997 -6.172,9.663c-2.541,2.617 -5.501,4.643 -8.877,6.068c-3.367,1.432 -6.965,2.13 -10.771,2.13c-4.057,0 -7.809,-0.758 -11.251,-2.286c-3.442,-1.508 -6.396,-3.622 -8.853,-6.335c-2.47,-2.653 -4.417,-5.873 -5.821,-9.667c-1.407,-3.802 -2.121,-7.852 -2.121,-12.188c0,-4.744 0.737,-8.957 2.225,-12.663c1.48,-3.718 3.515,-6.922 6.131,-9.639c2.566,-2.681 5.558,-4.735 8.978,-6.148c3.403,-1.436 6.981,-2.142 10.712,-2.142c3.861,0 7.504,0.726 10.935,2.17c3.426,1.452 6.383,3.495 8.872,6.12M670.669,1108.93c1.527,-2.485 2.637,-5.302 3.335,-8.462c0.694,-3.14 1.053,-6.654 1.053,-10.544c0,-3.982 -0.386,-7.66 -1.168,-10.995c-0.787,-3.344 -1.928,-6.188 -3.428,-8.55c-1.512,-2.326 -3.39,-4.149 -5.66,-5.438c-2.282,-1.3 -4.869,-1.943 -7.8,-1.943c-3.291,0 -6.077,0.738 -8.375,2.25c-2.298,1.509 -4.168,3.527 -5.617,6.037c-1.373,2.413 -2.402,5.234 -3.064,8.461c-0.67,3.232 -0.998,6.623 -0.998,10.178c0,3.949 0.344,7.5 1.071,10.68c0.709,3.176 1.822,5.996 3.354,8.466c1.469,2.421 3.339,4.285 5.59,5.637c2.234,1.36 4.915,2.039 8.039,2.039c2.931,0 5.557,-0.695 7.918,-2.051c2.347,-1.372 4.262,-3.295 5.75,-5.765" style="fill:#1a1619;fill-rule:nonzero;"/><path d="M728.753,1092.34c1.217,1.376 2.111,2.884 2.705,4.52c0.578,1.635 0.87,3.542 0.87,5.717c0,5.178 -1.912,9.439 -5.745,12.79c-3.835,3.371 -8.598,5.031 -14.279,5.031c-2.61,0 -5.239,-0.427 -7.863,-1.292c-2.621,-0.874 -4.867,-1.884 -6.787,-3.041l-1.767,3.009l-3.165,0l-0.498,-19.976l3.328,0c0.677,2.485 1.495,4.727 2.413,6.722c0.93,1.995 2.135,3.87 3.659,5.601c1.424,1.62 3.107,2.917 5.014,3.875c1.915,0.973 4.138,1.448 6.68,1.448c1.887,0 3.557,-0.24 4.969,-0.75c1.425,-0.483 2.571,-1.189 3.452,-2.111c0.889,-0.909 1.535,-1.975 1.963,-3.199c0.431,-1.233 0.643,-2.646 0.643,-4.261c0,-2.338 -0.662,-4.524 -1.983,-6.563c-1.318,-2.027 -3.283,-3.555 -5.901,-4.612c-1.796,-0.698 -3.841,-1.504 -6.157,-2.358c-2.301,-0.878 -4.299,-1.696 -5.98,-2.457c-3.306,-1.489 -5.86,-3.416 -7.691,-5.813c-1.835,-2.402 -2.741,-5.53 -2.741,-9.376c0,-2.222 0.451,-4.285 1.357,-6.219c0.905,-1.911 2.194,-3.615 3.882,-5.135c1.595,-1.408 3.463,-2.545 5.641,-3.363c2.166,-0.79 4.44,-1.193 6.806,-1.193c2.692,0 5.107,0.411 7.241,1.253c2.118,0.809 4.065,1.775 5.836,2.876l1.688,-2.797l3.152,0l0.339,19.457l-3.327,0c-0.594,-2.214 -1.277,-4.34 -2.006,-6.375c-0.758,-2.042 -1.717,-3.874 -2.905,-5.517c-1.162,-1.588 -2.582,-2.877 -4.265,-3.81c-1.68,-0.946 -3.742,-1.421 -6.168,-1.421c-2.569,0 -4.76,0.818 -6.575,2.494c-1.804,1.671 -2.708,3.718 -2.708,6.128c0,2.521 0.574,4.628 1.746,6.271c1.17,1.668 2.866,3.04 5.096,4.082c1.97,0.977 3.932,1.803 5.839,2.509c1.915,0.702 3.767,1.456 5.563,2.25c1.615,0.714 3.191,1.532 4.695,2.426c1.512,0.917 2.821,1.979 3.934,3.18" style="fill:#1a1619;fill-rule:nonzero;"/></g></g></svg>