<?xml version="1.0" encoding="utf-8"?>
<!-- Generator: Adobe Illustrator 22.0.1, SVG Export Plug-In . SVG Version: 6.00 Build 0)  -->
<svg version="1.1" xmlns="http://www.w3.org/2000/svg" xmlns:xlink="http://www.w3.org/1999/xlink" x="0px" y="0px"
	 viewBox="0 0 120 120" style="enable-background:new 0 0 120 120;" xml:space="preserve">
<style type="text/css">
	.st0{display:none;}
	.st1{display:inline;}
	.st2{fill:#FFFFFF;}
	.st3{fill:#3B3B3B;}
</style>
<g id="whatsapp_blanco" class="st0">
	<g class="st1">
		<path class="st2" d="M60,3.6c27.4,0,51,19.6,56,46.6c5.6,30.4-14.3,60-44.6,66.2c-14.5,2.9-28.2,0.5-41-7.1
			c-0.6-0.4-1.1-0.4-1.8-0.2c-6.8,2.4-13.5,4.7-20.3,7c-0.7,0.2-1.3,0.5-2-0.1c-0.6-0.6-0.4-1.3-0.2-1.9c2.1-6.9,4.1-13.8,6.2-20.7
			c0.2-0.7,0.2-1.3-0.3-1.9C5.6,81.3,2.6,70.2,3,58.1c1-26.1,20.3-48.5,46-53.4C52.7,4,56.3,3.8,60,3.4C60,3.4,60,3.5,60,3.6z
			 M9.3,113c0.5-0.2,0.9-0.3,1.2-0.4c6-2.1,12-4.1,18-6.2c1-0.3,1.8-0.3,2.7,0.3c13.1,8,27.3,10.3,42.2,6.6
			c29.1-7.3,46.7-37,39.3-66C105.1,17.6,74.6,0,45.3,8.3C22.8,14.6,6.7,34.8,5.7,58.1C5.2,70,8.3,80.9,14.9,90.8
			c0.5,0.8,0.6,1.5,0.4,2.4c-1.4,4.6-2.8,9.3-4.2,13.9C10.5,109,9.9,110.9,9.3,113z"/>
		<path class="st2" d="M25.5,44.3c0-9,4.1-14.6,11.7-17.5c2.7-1,2.7-1,4.2,1.4c3.6,5.9,7.2,11.9,10.8,17.8c0.5,0.8,0.4,1.4-0.2,2
			c-1.3,1.3-2.7,2.6-4,4c-0.2,0.2-0.4,0.8-0.2,1.1c3.9,6.5,8.4,12.4,14.7,16.8c1.5,1,3.1,1.8,4.6,2.8c0.5,0.3,0.8,0.2,1.2-0.2
			c1.4-1.5,2.9-2.8,4.3-4.3c0.7-0.7,1.3-0.8,2.1-0.3c6.2,3.9,12.5,7.8,18.7,11.7c0.7,0.4,1.1,1,0.8,1.8c-1.4,3.8-3.3,7.2-6.4,9.7
			c-3.8,3.1-8.2,4.1-13,3.7c-4.3-0.4-8.5-1.7-12.3-3.7c-15-8-26.3-19.6-33.8-34.9C26.8,52.2,25.6,47.7,25.5,44.3z M49.5,46.8
			c-3.5-5.7-6.9-11.4-10.4-17.1c-0.1-0.2-0.8-0.4-1-0.3c-6.3,2.1-10,7.2-10,13.9c0,4.5,1.5,8.8,3.4,12.8
			c4.3,8.9,10.4,16.3,17.7,22.8C55,84,61.3,88.4,68.7,90.9c3.7,1.3,7.6,2,11.5,1.2c5.6-1.1,8.9-5,11-10c0.1-0.2-0.2-0.8-0.4-1
			c-5.3-3.4-10.7-6.7-16.1-10.1c-0.5-0.3-0.8-0.3-1.2,0.1c-1.4,1.4-2.8,2.8-4.2,4.2c-0.6,0.6-1.3,0.8-2.1,0.4
			c-2.2-1.3-4.6-2.4-6.6-3.9C53.7,67,48.9,60.4,44.8,53.3c-0.4-0.7-0.3-1.4,0.3-2C46.5,49.8,48,48.3,49.5,46.8z"/>
	</g>
</g>
<g id="whatsapp_gris">
</g>
<g id="back_blanco" class="st0">
	<g transform="translate(0,-952.36218)" class="st1">
		<path class="st3" d="M88.4,955.3c-0.3,0.1-0.5,0.2-0.7,0.4l-58.3,55.6c-0.5,0.5-0.5,1.3,0,1.9c0,0,0,0,0,0l58.3,55.6
			c0.5,0.6,1.3,0.6,1.9,0.2c0.6-0.5,0.6-1.3,0.2-1.9c-0.1-0.1-0.1-0.1-0.2-0.2l-57.3-54.7l57.3-54.7c0.5-0.5,0.5-1.3,0-1.9
			c-0.2-0.2-0.6-0.4-0.9-0.4C88.6,955.3,88.5,955.3,88.4,955.3L88.4,955.3z"/>
	</g>
</g>
<g id="back_gris">
	<g transform="translate(0,-952.36218)">
		<path class="st3" d="M88.4,955.3c-0.3,0.1-0.5,0.2-0.7,0.4l-58.3,55.6c-0.5,0.5-0.5,1.3,0,1.9c0,0,0,0,0,0l58.3,55.6
			c0.5,0.6,1.3,0.6,1.9,0.2c0.6-0.5,0.6-1.3,0.2-1.9c-0.1-0.1-0.1-0.1-0.2-0.2l-57.3-54.7l57.3-54.7c0.5-0.5,0.5-1.3,0-1.9
			c-0.2-0.2-0.6-0.4-0.9-0.4C88.6,955.3,88.5,955.3,88.4,955.3L88.4,955.3z"/>
	</g>
</g>
</svg>
